# xmcd
#
# Track frame offsets:
#	150
#	14432
#	28114
#	30571
#	48139
#	64439
#	82083
#	97300
#	112713
#	133477
#	147694
#	166406
#
# Disc length: 2497 seconds
#
# Revision: 0
# Processed by: cddbd v1.5.2PL0 Copyright (c) Steve Scherf et al.
# Submitted via: EasyCDDAExtractor 12.0.6 .1
#
DISCID=af09bf0c
DTITLE=Josh Abbott Band - She's Like Texas
DYEAR=2010
DGENRE=Country
TTITLE0=Road Trippin
TTITLE1=All Of A Sudden
TTITLE2=The Walking Out
TTITLE3=If You're Leaving (I'm Coming Too)
TTITLE4=Fall In Love Again
TTITLE5=She's Like Texas
TTITLE6=Brushy Creek
TTITLE7=Oh, Tonight (Feat. Kacey Musgraves)
TTITLE8=Hot Water
TTITLE9=I Just Wanna Love You
TTITLE10=End Of A Dirt Road (Feat. Roger Creager and Trent Willmon)
TTITLE11=Let My Tears Be Still
EXTD=
EXTT0=
EXTT1=
EXTT2=
EXTT3=
EXTT4=
EXTT5=
EXTT6=
EXTT7=
EXTT8=
EXTT9=
EXTT10=
EXTT11=
PLAYORDER=
